<?xml version="1.0" encoding="UTF-8" standalone="no"?>
<svg width="458px" height="137px" viewBox="0 0 458 137" version="1.1" xmlns="http://www.w3.org/2000/svg" xmlns:xlink="http://www.w3.org/1999/xlink" xmlns:sketch="http://www.bohemiancoding.com/sketch/ns">
    <!-- Generator: Sketch 3.2.1 (9977) - http://www.bohemiancoding.com/sketch -->
    <title>Slice 1</title>
    <desc>Created with Sketch.</desc>
    <defs></defs>
    <g id="Page-1" stroke="none" stroke-width="1" fill="none" fill-rule="evenodd" sketch:type="MSPage">
        <g id="Group" sketch:type="MSLayerGroup" transform="translate(391.713212, 77.409576) rotate(35.000000) translate(-391.713212, -77.409576) translate(355.713212, 3.909576)" fill="#5F5EB8">
            <path d="M30,78 L0.206665039,78 L0.206665039,63 L10.5734414,63 L20.4764019,9 L6.20666504,9 L6.20666504,1.42108547e-13 L65.206665,1.42108547e-13 L65.206665,9 L50.9369282,9 L50.9369282,9 L60.8398887,63 L71.206665,63 L71.206665,78 L41,78 L41,134 L30,134 L30,78 L30,78 Z M35.5,146 L41,134 L30,134 L35.5,146 Z" id="Rectangle-1" sketch:type="MSShapeGroup"></path>
        </g>
        <path d="M17.2005534,98.089576 C21.4005534,102.049576 26.2005534,104.329576 31.3605534,104.329576 C44.2005534,104.329576 56.4405534,92.569576 56.4405534,72.169576 C56.4405534,53.809576 47.5605534,41.929576 33.1605534,41.929576 C26.9205534,41.929576 20.9205534,45.049576 16.2405534,49.249576 L15.7605534,49.249576 L14.5605534,43.369576 L0.160553448,43.369576 L0.160553448,124.969576 L17.8005534,124.969576 L17.8005534,107.569576 L17.2005534,98.089576 Z M17.8005534,86.089576 L17.8005534,61.729576 C21.2805534,58.009576 24.4005534,56.329576 28.0005534,56.329576 C35.0805534,56.329576 38.3205534,61.729576 38.3205534,72.409576 C38.3205534,84.649576 33.4005534,89.929576 27.2805534,89.929576 C24.2805534,89.929576 20.9205534,88.969576 17.8005534,86.089576 L17.8005534,86.089576 Z M77.6805534,34.609576 C83.6805534,34.609576 87.8805534,30.769576 87.8805534,25.369576 C87.8805534,19.969576 83.6805534,16.249576 77.6805534,16.249576 C71.8005534,16.249576 67.4805534,19.969576 67.4805534,25.369576 C67.4805534,30.769576 71.8005534,34.609576 77.6805534,34.609576 L77.6805534,34.609576 Z M68.9205534,102.889576 L86.5605534,102.889576 L86.5605534,43.369576 L68.9205534,43.369576 L68.9205534,102.889576 Z M102.040553,102.889576 L119.680553,102.889576 L119.680553,62.689576 C123.520553,58.969576 126.280553,56.929576 130.720553,56.929576 C135.760553,56.929576 138.040553,59.569576 138.040553,68.209576 L138.040553,102.889576 L155.680553,102.889576 L155.680553,65.929576 C155.680553,51.049576 150.160553,41.929576 137.200553,41.929576 C129.160553,41.929576 123.160553,46.129576 118.120553,50.929576 L117.640553,50.929576 L116.440553,43.369576 L102.040553,43.369576 L102.040553,102.889576 Z M170.680553,84.409576 C170.680553,96.409576 174.760553,104.329576 186.880553,104.329576 C190.840553,104.329576 193.840553,103.729576 195.760553,102.889576 L193.600553,89.809576 C192.640553,90.049576 192.160553,90.049576 191.440553,90.049576 C190.000553,90.049576 188.320553,88.849576 188.320553,85.129576 L188.320553,18.769576 L170.680553,18.769576 L170.680553,84.409576 Z M213.760553,34.609576 C219.760553,34.609576 223.960553,30.769576 223.960553,25.369576 C223.960553,19.969576 219.760553,16.249576 213.760553,16.249576 C207.880553,16.249576 203.560553,19.969576 203.560553,25.369576 C203.560553,30.769576 207.880553,34.609576 213.760553,34.609576 L213.760553,34.609576 Z M205.000553,102.889576 L222.640553,102.889576 L222.640553,43.369576 L205.000553,43.369576 L205.000553,102.889576 Z M232.840553,96.049576 C238.840553,100.969576 247.840553,104.329576 255.640553,104.329576 C271.600553,104.329576 280.120553,95.929576 280.120553,85.129576 C280.120553,74.209576 271.600553,70.009576 264.040553,67.249576 C257.920553,64.969576 252.400553,63.529576 252.400553,59.689576 C252.400553,56.689576 254.560553,55.009576 259.120553,55.009576 C263.320553,55.009576 267.400553,56.929576 271.720553,60.049576 L279.640553,49.489576 C274.480553,45.649576 267.760553,41.929576 258.640553,41.929576 C244.840553,41.929576 235.840553,49.489576 235.840553,60.529576 C235.840553,70.369576 244.360553,75.289576 251.560553,78.049576 C257.680553,80.449576 263.680553,82.249576 263.680553,86.209576 C263.680553,89.329576 261.400553,91.249576 256.120553,91.249576 C251.080553,91.249576 246.160553,89.089576 240.760553,85.009576 L232.840553,96.049576 Z M293.680553,81.289576 C293.680553,95.089576 299.440553,104.329576 314.200553,104.329576 C319.960553,104.329576 324.280553,103.129576 327.400553,102.169576 L324.640553,89.329576 C323.080553,89.929576 320.920553,90.529576 319.000553,90.529576 C314.320553,90.529576 311.320553,87.769576 311.320553,81.049576 L311.320553,57.169576 L325.600553,57.169576 L325.600553,43.369576 L311.320553,43.369576 L311.320553,27.529576 L296.680553,27.529576 L294.640553,43.369576 L285.520553,44.089576 L285.520553,57.169576 L293.680553,57.169576 L293.680553,81.289576 Z" id="pinlist" fill="#5F5EB8" sketch:type="MSShapeGroup"></path>
    </g>
</svg>